<svg xmlns="http://www.w3.org/2000/svg" xmlns:xlink="http://www.w3.org/1999/xlink" width="500" zoomAndPan="magnify" viewBox="40 120 375 374.999991" height="500" preserveAspectRatio="xMidYMid meet" version="1.0"><defs><filter x="0%" y="0%" width="100%" height="100%" id="id1"><feColorMatrix values="0 0 0 0 1 0 0 0 0 1 0 0 0 0 1 0 0 0 1 0" color-interpolation-filters="sRGB"/></filter><g/><mask id="id2"><g filter="url(#id1)"><rect x="-37.5" width="450" fill="#000000" y="-37.499999" height="449.999989" fill-opacity="0.7294"/></g></mask><clipPath id="id3"><path d="M 0.5 0.425781 L 80.648438 0.425781 L 80.648438 80.574219 L 0.5 80.574219 Z M 0.5 0.425781 " clip-rule="nonzero"/></clipPath><clipPath id="id4"><rect x="0" width="81" y="0" height="81"/></clipPath><clipPath id="id5"><path d="M 70 167 L 121 167 L 121 208 L 70 208 Z M 70 167 " clip-rule="nonzero"/></clipPath><clipPath id="id6"><path d="M 59.886719 184.726562 L 112.5625 155.996094 L 131.238281 190.234375 L 78.5625 218.964844 Z M 59.886719 184.726562 " clip-rule="nonzero"/></clipPath><clipPath id="id7"><path d="M 59.886719 184.726562 L 112.5625 155.996094 L 131.238281 190.234375 L 78.5625 218.964844 Z M 59.886719 184.726562 " clip-rule="nonzero"/></clipPath><clipPath id="id8"><path d="M 70 173 L 129 173 L 129 217 L 70 217 Z M 70 173 " clip-rule="nonzero"/></clipPath><clipPath id="id9"><path d="M 59.886719 184.726562 L 112.5625 155.996094 L 131.238281 190.234375 L 78.5625 218.964844 Z M 59.886719 184.726562 " clip-rule="nonzero"/></clipPath><clipPath id="id10"><path d="M 59.886719 184.726562 L 112.5625 155.996094 L 131.238281 190.234375 L 78.5625 218.964844 Z M 59.886719 184.726562 " clip-rule="nonzero"/></clipPath><mask id="id11"><g filter="url(#id1)"><rect x="-37.5" width="450" fill="#000000" y="-37.499999" height="449.999989" fill-opacity="0.149"/></g></mask><clipPath id="id12"><path d="M 1 1 L 51 1 L 51 35 L 1 35 Z M 1 1 " clip-rule="nonzero"/></clipPath><clipPath id="id13"><path d="M -10.113281 11.726562 L 42.5625 -17.003906 L 61.238281 17.234375 L 8.5625 45.964844 Z M -10.113281 11.726562 " clip-rule="nonzero"/></clipPath><clipPath id="id14"><path d="M -10.113281 11.726562 L 42.5625 -17.003906 L 61.238281 17.234375 L 8.5625 45.964844 Z M -10.113281 11.726562 " clip-rule="nonzero"/></clipPath><clipPath id="id15"><rect x="0" width="59" y="0" height="44"/></clipPath><clipPath id="id16"><path d="M 68 165 L 123 165 L 123 210 L 68 210 Z M 68 165 " clip-rule="nonzero"/></clipPath><clipPath id="id17"><path d="M 59.886719 184.726562 L 112.5625 155.996094 L 131.238281 190.234375 L 78.5625 218.964844 Z M 59.886719 184.726562 " clip-rule="nonzero"/></clipPath><clipPath id="id18"><path d="M 59.886719 184.726562 L 112.5625 155.996094 L 131.238281 190.234375 L 78.5625 218.964844 Z M 59.886719 184.726562 " clip-rule="nonzero"/></clipPath><clipPath id="id19"><path d="M 84 180 L 107 180 L 107 195 L 84 195 Z M 84 180 " clip-rule="nonzero"/></clipPath><clipPath id="id20"><path d="M 59.886719 184.726562 L 112.5625 155.996094 L 131.238281 190.234375 L 78.5625 218.964844 Z M 59.886719 184.726562 " clip-rule="nonzero"/></clipPath><clipPath id="id21"><path d="M 59.886719 184.726562 L 112.5625 155.996094 L 131.238281 190.234375 L 78.5625 218.964844 Z M 59.886719 184.726562 " clip-rule="nonzero"/></clipPath></defs><g fill="#627e8b" fill-opacity="1"><g transform="translate(144.464702, 187.93096)"><g><path d="M 21.078125 -23.53125 L 30.578125 -23.53125 L 29.609375 -19.265625 L 27.59375 -19.265625 L 23.15625 0 L 17.8125 0 L 11.8125 -14.515625 L 9.4375 -4.25 L 11.4375 -4.25 L 10.46875 0 L 0.953125 0 L 1.9375 -4.25 L 4.03125 -4.25 L 7.5 -19.265625 L 4.953125 -19.265625 L 5.953125 -23.53125 L 13.953125 -23.53125 L 19.765625 -9 L 22.15625 -19.265625 L 20.09375 -19.265625 Z M 21.078125 -23.53125 "/></g></g></g><g fill="#627e8b" fill-opacity="1"><g transform="translate(174.416492, 187.93096)"><g><path d="M 6.109375 -23.53125 L 17.046875 -23.53125 C 18.117188 -23.53125 19.078125 -23.367188 19.921875 -23.046875 C 20.773438 -22.722656 21.492188 -22.273438 22.078125 -21.703125 C 22.671875 -21.128906 23.117188 -20.457031 23.421875 -19.6875 C 23.722656 -18.914062 23.875 -18.085938 23.875 -17.203125 C 23.875 -16.066406 23.691406 -14.984375 23.328125 -13.953125 C 22.960938 -12.929688 22.375 -12.035156 21.5625 -11.265625 C 20.75 -10.492188 19.6875 -9.878906 18.375 -9.421875 C 17.070312 -8.960938 15.484375 -8.734375 13.609375 -8.734375 L 10.828125 -8.734375 L 9.78125 -4.25 L 12.4375 -4.25 L 11.4375 0 L 0.953125 0 L 1.9375 -4.25 L 4.34375 -4.25 L 7.828125 -19.265625 L 5.125 -19.265625 Z M 13.28125 -19.265625 L 11.796875 -12.953125 L 13.453125 -12.953125 C 14.148438 -12.953125 14.785156 -13.023438 15.359375 -13.171875 C 15.929688 -13.328125 16.421875 -13.554688 16.828125 -13.859375 C 17.242188 -14.171875 17.5625 -14.5625 17.78125 -15.03125 C 18.007812 -15.5 18.125 -16.050781 18.125 -16.6875 C 18.125 -17.476562 17.851562 -18.101562 17.3125 -18.5625 C 16.78125 -19.03125 15.984375 -19.265625 14.921875 -19.265625 Z M 13.28125 -19.265625 "/></g></g></g><g fill="#627e8b" fill-opacity="1"><g transform="translate(197.661953, 187.93096)"><g><path d="M 6.109375 -23.53125 L 26.234375 -23.53125 L 24.390625 -15.515625 L 18.953125 -15.515625 L 19.8125 -19.265625 L 13.28125 -19.265625 L 12.09375 -14.203125 L 17.328125 -14.203125 L 16.28125 -9.703125 L 11.046875 -9.703125 L 9.78125 -4.25 L 15.921875 -4.25 L 16.875 -8.4375 L 22.328125 -8.4375 L 20.390625 0 L 0.953125 0 L 1.9375 -4.25 L 4.34375 -4.25 L 7.828125 -19.265625 L 5.125 -19.265625 Z M 6.109375 -23.53125 "/></g></g></g><g fill="#627e8b" fill-opacity="1"><g transform="translate(144.464702, 205.887159)"><g><path d="M 6.296875 -8.828125 L 9.15625 -8.828125 L 9.15625 -7.8125 L 8.40625 -7.8125 L 8.40625 0 L 6.921875 0 L 2.8125 -7.3125 L 2.8125 -1 L 3.71875 -1 L 3.71875 0 L 0.859375 0 L 0.859375 -1 L 1.671875 -1 L 1.671875 -7.8125 L 0.828125 -7.8125 L 0.828125 -8.84375 L 3.203125 -8.84375 L 7.234375 -1.59375 L 7.28125 -1.875 L 7.28125 -7.8125 L 6.296875 -7.8125 Z M 6.296875 -8.828125 "/></g></g></g><g fill="#627e8b" fill-opacity="1"><g transform="translate(154.750061, 205.887159)"><g><path d="M 0.828125 -8.828125 L 7.15625 -8.828125 L 7.15625 -6.328125 L 5.96875 -6.328125 L 5.96875 -7.8125 L 2.8125 -7.8125 L 2.8125 -4.984375 L 5.84375 -4.984375 L 5.84375 -4 L 2.8125 -4 L 2.8125 -1 L 3.703125 -1 L 3.703125 0 L 0.828125 0 L 0.828125 -1 L 1.671875 -1 L 1.671875 -7.8125 L 0.828125 -7.8125 Z M 0.828125 -8.828125 "/></g></g></g><g fill="#627e8b" fill-opacity="1"><g transform="translate(162.818265, 205.887159)"><g><path d="M 0.828125 -8.828125 L 3.703125 -8.828125 L 3.703125 -7.8125 L 2.8125 -7.8125 L 2.8125 -1 L 5.859375 -1 C 5.921875 -1 5.984375 -1.015625 6.046875 -1.046875 C 6.109375 -1.078125 6.160156 -1.113281 6.203125 -1.15625 C 6.253906 -1.207031 6.296875 -1.257812 6.328125 -1.3125 C 6.359375 -1.375 6.375 -1.4375 6.375 -1.5 L 6.375 -2.609375 L 7.484375 -2.609375 L 7.484375 0 L 0.828125 0 L 0.828125 -1 L 1.671875 -1 L 1.671875 -7.8125 L 0.828125 -7.8125 Z M 0.828125 -8.828125 "/></g></g></g><g fill="#627e8b" fill-opacity="1"><g transform="translate(171.194886, 205.887159)"><g><path d="M 0 0 Z M 0 0 "/></g></g></g><g fill="#627e8b" fill-opacity="1"><g transform="translate(174.636725, 205.887159)"><g><path d="M 0.828125 -8.828125 L 4.40625 -8.828125 C 4.800781 -8.828125 5.160156 -8.773438 5.484375 -8.671875 C 5.816406 -8.566406 6.101562 -8.414062 6.34375 -8.21875 C 6.59375 -8.019531 6.785156 -7.769531 6.921875 -7.46875 C 7.054688 -7.164062 7.125 -6.820312 7.125 -6.4375 C 7.125 -6.113281 7.054688 -5.804688 6.921875 -5.515625 C 6.785156 -5.234375 6.597656 -4.984375 6.359375 -4.765625 C 6.117188 -4.554688 5.832031 -4.390625 5.5 -4.265625 C 5.164062 -4.148438 4.789062 -4.09375 4.375 -4.09375 L 2.8125 -4.09375 L 2.8125 -1 L 3.703125 -1 L 3.703125 0 L 0.828125 0 L 0.828125 -1 L 1.671875 -1 L 1.671875 -7.8125 L 0.828125 -7.8125 Z M 2.8125 -7.8125 L 2.8125 -5.046875 L 4.40625 -5.046875 C 4.625 -5.046875 4.820312 -5.070312 5 -5.125 C 5.1875 -5.1875 5.347656 -5.273438 5.484375 -5.390625 C 5.617188 -5.515625 5.722656 -5.660156 5.796875 -5.828125 C 5.878906 -6.003906 5.921875 -6.207031 5.921875 -6.4375 C 5.921875 -6.875 5.785156 -7.210938 5.515625 -7.453125 C 5.253906 -7.691406 4.832031 -7.8125 4.25 -7.8125 Z M 2.8125 -7.8125 "/></g></g></g><g fill="#627e8b" fill-opacity="1"><g transform="translate(182.873684, 205.887159)"><g><path d="M 0.828125 -8.828125 L 4.5 -8.828125 C 4.894531 -8.828125 5.257812 -8.773438 5.59375 -8.671875 C 5.925781 -8.566406 6.210938 -8.414062 6.453125 -8.21875 C 6.691406 -8.019531 6.878906 -7.769531 7.015625 -7.46875 C 7.148438 -7.164062 7.21875 -6.820312 7.21875 -6.4375 C 7.21875 -6.21875 7.175781 -6 7.09375 -5.78125 C 7.019531 -5.5625 6.910156 -5.359375 6.765625 -5.171875 C 6.628906 -4.992188 6.460938 -4.832031 6.265625 -4.6875 C 6.078125 -4.539062 5.867188 -4.429688 5.640625 -4.359375 C 5.734375 -4.316406 5.828125 -4.253906 5.921875 -4.171875 C 6.023438 -4.097656 6.117188 -4.003906 6.203125 -3.890625 C 6.296875 -3.773438 6.378906 -3.644531 6.453125 -3.5 C 6.523438 -3.351562 6.582031 -3.195312 6.625 -3.03125 L 7.109375 -1.109375 L 7.875 -1.109375 L 7.875 0 L 6.171875 0 L 5.5 -2.6875 C 5.382812 -3.164062 5.203125 -3.519531 4.953125 -3.75 C 4.710938 -3.976562 4.378906 -4.09375 3.953125 -4.09375 L 2.8125 -4.09375 L 2.8125 -1 L 3.703125 -1 L 3.703125 0 L 0.828125 0 L 0.828125 -1 L 1.671875 -1 L 1.671875 -7.8125 L 0.828125 -7.8125 Z M 2.8125 -7.8125 L 2.8125 -5.046875 L 4.5 -5.046875 C 4.726562 -5.046875 4.929688 -5.070312 5.109375 -5.125 C 5.296875 -5.1875 5.457031 -5.273438 5.59375 -5.390625 C 5.726562 -5.503906 5.832031 -5.644531 5.90625 -5.8125 C 5.976562 -5.988281 6.015625 -6.191406 6.015625 -6.421875 C 6.015625 -6.859375 5.882812 -7.195312 5.625 -7.4375 C 5.363281 -7.6875 4.941406 -7.8125 4.359375 -7.8125 Z M 2.8125 -7.8125 "/></g></g></g><g fill="#627e8b" fill-opacity="1"><g transform="translate(192.193036, 205.887159)"><g><path d="M 0.828125 -8.828125 L 7.15625 -8.828125 L 7.15625 -6.328125 L 5.96875 -6.328125 L 5.96875 -7.8125 L 2.8125 -7.8125 L 2.8125 -5 L 5.453125 -5 L 5.453125 -4 L 2.8125 -4 L 2.8125 -1 L 5.96875 -1 L 5.96875 -2.484375 L 7.15625 -2.484375 L 7.15625 0 L 0.828125 0 L 0.828125 -1 L 1.671875 -1 L 1.671875 -7.8125 L 0.828125 -7.8125 Z M 0.828125 -8.828125 "/></g></g></g><g fill="#627e8b" fill-opacity="1"><g transform="translate(200.511463, 205.887159)"><g><path d="M 0.828125 -8.828125 L 4.109375 -8.828125 C 4.515625 -8.828125 4.898438 -8.773438 5.265625 -8.671875 C 5.628906 -8.566406 5.96875 -8.414062 6.28125 -8.21875 C 6.601562 -8.03125 6.890625 -7.800781 7.140625 -7.53125 C 7.398438 -7.269531 7.617188 -6.976562 7.796875 -6.65625 C 7.972656 -6.332031 8.109375 -5.984375 8.203125 -5.609375 C 8.304688 -5.234375 8.359375 -4.84375 8.359375 -4.4375 C 8.359375 -4.019531 8.304688 -3.625 8.203125 -3.25 C 8.109375 -2.875 7.972656 -2.519531 7.796875 -2.1875 C 7.617188 -1.863281 7.398438 -1.566406 7.140625 -1.296875 C 6.890625 -1.023438 6.601562 -0.789062 6.28125 -0.59375 C 5.96875 -0.40625 5.628906 -0.257812 5.265625 -0.15625 C 4.898438 -0.0507812 4.515625 0 4.109375 0 L 0.828125 0 L 0.828125 -1 L 1.671875 -1 L 1.671875 -7.8125 L 0.828125 -7.8125 Z M 2.8125 -7.8125 L 2.8125 -1 L 4.1875 -1 C 4.59375 -1 4.972656 -1.085938 5.328125 -1.265625 C 5.691406 -1.441406 6.003906 -1.6875 6.265625 -2 C 6.535156 -2.3125 6.75 -2.675781 6.90625 -3.09375 C 7.0625 -3.507812 7.140625 -3.957031 7.140625 -4.4375 C 7.140625 -4.90625 7.0625 -5.34375 6.90625 -5.75 C 6.75 -6.164062 6.535156 -6.523438 6.265625 -6.828125 C 6.003906 -7.140625 5.691406 -7.378906 5.328125 -7.546875 C 4.972656 -7.722656 4.59375 -7.8125 4.1875 -7.8125 Z M 2.8125 -7.8125 "/></g></g></g><g fill="#627e8b" fill-opacity="1"><g transform="translate(210.115968, 205.887159)"><g><path d="M 0.828125 -8.828125 L 3.65625 -8.828125 L 3.65625 -7.8125 L 2.8125 -7.8125 L 2.8125 -1 L 3.65625 -1 L 3.65625 0 L 0.828125 0 L 0.828125 -1 L 1.671875 -1 L 1.671875 -7.8125 L 0.828125 -7.8125 Z M 0.828125 -8.828125 "/></g></g></g><g fill="#627e8b" fill-opacity="1"><g transform="translate(215.431628, 205.887159)"><g><path d="M 7.09375 -6.5 C 6.832031 -6.9375 6.488281 -7.28125 6.0625 -7.53125 C 5.632812 -7.789062 5.15625 -7.921875 4.625 -7.921875 C 4.175781 -7.921875 3.765625 -7.820312 3.390625 -7.625 C 3.015625 -7.4375 2.691406 -7.179688 2.421875 -6.859375 C 2.160156 -6.546875 1.957031 -6.175781 1.8125 -5.75 C 1.664062 -5.332031 1.59375 -4.890625 1.59375 -4.421875 C 1.59375 -3.867188 1.671875 -3.378906 1.828125 -2.953125 C 1.992188 -2.535156 2.207031 -2.1875 2.46875 -1.90625 C 2.738281 -1.625 3.050781 -1.382812 3.40625 -1.1875 C 3.769531 -1 4.175781 -0.90625 4.625 -0.90625 C 5.238281 -0.90625 5.769531 -1.050781 6.21875 -1.34375 C 6.675781 -1.644531 7.066406 -2.140625 7.390625 -2.828125 L 8.421875 -2.34375 C 8.273438 -1.925781 8.023438 -1.519531 7.671875 -1.125 C 7.316406 -0.738281 6.878906 -0.425781 6.359375 -0.1875 C 5.835938 0.0507812 5.265625 0.171875 4.640625 0.171875 C 4.035156 0.171875 3.476562 0.0625 2.96875 -0.15625 C 2.46875 -0.382812 2.019531 -0.707031 1.625 -1.125 C 1.238281 -1.550781 0.941406 -2.050781 0.734375 -2.625 C 0.523438 -3.195312 0.421875 -3.796875 0.421875 -4.421875 C 0.421875 -5.046875 0.523438 -5.640625 0.734375 -6.203125 C 0.941406 -6.765625 1.234375 -7.25 1.609375 -7.65625 C 1.984375 -8.070312 2.425781 -8.398438 2.9375 -8.640625 C 3.457031 -8.878906 4.019531 -9 4.625 -9 C 5.164062 -9 5.628906 -8.921875 6.015625 -8.765625 C 6.410156 -8.617188 6.742188 -8.4375 7.015625 -8.21875 C 7.296875 -8.007812 7.535156 -7.78125 7.734375 -7.53125 L 8.34375 -7.53125 L 8.34375 -6.5 Z M 7.09375 -6.5 "/></g></g></g><g fill="#627e8b" fill-opacity="1"><g transform="translate(225.047772, 205.887159)"><g><path d="M 2.640625 -1 L 3.453125 -1 L 3.453125 -7.875 L 1.4375 -7.875 L 1.4375 -6.5 L 0.234375 -6.5 L 0.234375 -8.828125 L 8.109375 -8.828125 L 8.109375 -6.5 L 6.921875 -6.5 L 6.921875 -7.875 L 4.59375 -7.875 L 4.59375 -1 L 5.5 -1 L 5.5 0 L 2.640625 0 Z M 2.640625 -1 "/></g></g></g><g fill="#627e8b" fill-opacity="1"><g transform="translate(234.22746, 205.887159)"><g><path d="M 0.828125 -8.828125 L 3.65625 -8.828125 L 3.65625 -7.8125 L 2.8125 -7.8125 L 2.8125 -1 L 3.65625 -1 L 3.65625 0 L 0.828125 0 L 0.828125 -1 L 1.671875 -1 L 1.671875 -7.8125 L 0.828125 -7.8125 Z M 0.828125 -8.828125 "/></g></g></g><g fill="#627e8b" fill-opacity="1"><g transform="translate(239.54312, 205.887159)"><g><path d="M 4.65625 0.171875 C 4.039062 0.171875 3.476562 0.0625 2.96875 -0.15625 C 2.46875 -0.382812 2.019531 -0.707031 1.625 -1.125 C 1.226562 -1.550781 0.925781 -2.050781 0.71875 -2.625 C 0.519531 -3.195312 0.421875 -3.789062 0.421875 -4.40625 C 0.421875 -5.039062 0.523438 -5.640625 0.734375 -6.203125 C 0.941406 -6.765625 1.234375 -7.25 1.609375 -7.65625 C 1.984375 -8.070312 2.425781 -8.398438 2.9375 -8.640625 C 3.457031 -8.878906 4.03125 -9 4.65625 -9 C 5.28125 -9 5.851562 -8.878906 6.375 -8.640625 C 6.894531 -8.398438 7.335938 -8.070312 7.703125 -7.65625 C 8.078125 -7.25 8.367188 -6.765625 8.578125 -6.203125 C 8.785156 -5.640625 8.890625 -5.039062 8.890625 -4.40625 C 8.890625 -3.769531 8.785156 -3.171875 8.578125 -2.609375 C 8.367188 -2.054688 8.078125 -1.570312 7.703125 -1.15625 C 7.328125 -0.75 6.878906 -0.425781 6.359375 -0.1875 C 5.835938 0.0507812 5.269531 0.171875 4.65625 0.171875 Z M 4.65625 -0.90625 C 5.113281 -0.90625 5.53125 -1 5.90625 -1.1875 C 6.28125 -1.382812 6.597656 -1.640625 6.859375 -1.953125 C 7.128906 -2.273438 7.332031 -2.644531 7.46875 -3.0625 C 7.613281 -3.488281 7.6875 -3.9375 7.6875 -4.40625 C 7.6875 -4.894531 7.609375 -5.363281 7.453125 -5.8125 C 7.296875 -6.257812 7.078125 -6.632812 6.796875 -6.9375 C 6.515625 -7.25 6.1875 -7.488281 5.8125 -7.65625 C 5.4375 -7.832031 5.050781 -7.921875 4.65625 -7.921875 C 4.1875 -7.921875 3.765625 -7.820312 3.390625 -7.625 C 3.015625 -7.4375 2.691406 -7.179688 2.421875 -6.859375 C 2.160156 -6.546875 1.957031 -6.175781 1.8125 -5.75 C 1.675781 -5.320312 1.609375 -4.875 1.609375 -4.40625 C 1.609375 -3.863281 1.6875 -3.378906 1.84375 -2.953125 C 2 -2.535156 2.207031 -2.1875 2.46875 -1.90625 C 2.738281 -1.625 3.050781 -1.382812 3.40625 -1.1875 C 3.769531 -1 4.1875 -0.90625 4.65625 -0.90625 Z M 4.65625 -0.90625 "/></g></g></g><g fill="#627e8b" fill-opacity="1"><g transform="translate(249.671364, 205.887159)"><g><path d="M 6.296875 -8.828125 L 9.15625 -8.828125 L 9.15625 -7.8125 L 8.40625 -7.8125 L 8.40625 0 L 6.921875 0 L 2.8125 -7.3125 L 2.8125 -1 L 3.71875 -1 L 3.71875 0 L 0.859375 0 L 0.859375 -1 L 1.671875 -1 L 1.671875 -7.8125 L 0.828125 -7.8125 L 0.828125 -8.84375 L 3.203125 -8.84375 L 7.234375 -1.59375 L 7.28125 -1.875 L 7.28125 -7.8125 L 6.296875 -7.8125 Z M 6.296875 -8.828125 "/></g></g></g><g fill="#627e8b" fill-opacity="1"><g transform="translate(259.956718, 205.887159)"><g><path d="M 0 0 Z M 0 0 "/></g></g></g><g fill="#627e8b" fill-opacity="1"><g transform="translate(263.398551, 205.887159)"><g><path d="M 0.828125 -8.828125 L 7.15625 -8.828125 L 7.15625 -6.328125 L 5.96875 -6.328125 L 5.96875 -7.8125 L 2.8125 -7.8125 L 2.8125 -5 L 5.453125 -5 L 5.453125 -4 L 2.8125 -4 L 2.8125 -1 L 5.96875 -1 L 5.96875 -2.484375 L 7.15625 -2.484375 L 7.15625 0 L 0.828125 0 L 0.828125 -1 L 1.671875 -1 L 1.671875 -7.8125 L 0.828125 -7.8125 Z M 0.828125 -8.828125 "/></g></g></g><g fill="#627e8b" fill-opacity="1"><g transform="translate(271.716975, 205.887159)"><g><path d="M 6.296875 -8.828125 L 9.15625 -8.828125 L 9.15625 -7.8125 L 8.40625 -7.8125 L 8.40625 0 L 6.921875 0 L 2.8125 -7.3125 L 2.8125 -1 L 3.71875 -1 L 3.71875 0 L 0.859375 0 L 0.859375 -1 L 1.671875 -1 L 1.671875 -7.8125 L 0.828125 -7.8125 L 0.828125 -8.84375 L 3.203125 -8.84375 L 7.234375 -1.59375 L 7.28125 -1.875 L 7.28125 -7.8125 L 6.296875 -7.8125 Z M 6.296875 -8.828125 "/></g></g></g><g fill="#627e8b" fill-opacity="1"><g transform="translate(282.002329, 205.887159)"><g><path d="M 7.640625 0.03125 L 7.640625 -1.734375 C 7.492188 -1.429688 7.3125 -1.164062 7.09375 -0.9375 C 6.875 -0.707031 6.625 -0.519531 6.34375 -0.375 C 6.070312 -0.226562 5.78125 -0.117188 5.46875 -0.046875 C 5.164062 0.0234375 4.859375 0.0625 4.546875 0.0625 C 3.960938 0.0625 3.425781 -0.03125 2.9375 -0.21875 C 2.457031 -0.40625 2.019531 -0.707031 1.625 -1.125 C 1.238281 -1.550781 0.941406 -2.050781 0.734375 -2.625 C 0.523438 -3.195312 0.421875 -3.796875 0.421875 -4.421875 C 0.421875 -5.046875 0.523438 -5.640625 0.734375 -6.203125 C 0.941406 -6.765625 1.234375 -7.253906 1.609375 -7.671875 C 1.984375 -8.085938 2.425781 -8.410156 2.9375 -8.640625 C 3.457031 -8.878906 4.019531 -9 4.625 -9 C 5.1875 -9 5.664062 -8.914062 6.0625 -8.75 C 6.46875 -8.59375 6.8125 -8.398438 7.09375 -8.171875 C 7.382812 -7.953125 7.613281 -7.738281 7.78125 -7.53125 L 8.34375 -7.53125 L 8.34375 -6.5 L 7.09375 -6.5 C 6.832031 -6.9375 6.488281 -7.28125 6.0625 -7.53125 C 5.632812 -7.789062 5.15625 -7.921875 4.625 -7.921875 C 4.175781 -7.921875 3.765625 -7.820312 3.390625 -7.625 C 3.015625 -7.4375 2.691406 -7.179688 2.421875 -6.859375 C 2.160156 -6.535156 1.957031 -6.164062 1.8125 -5.75 C 1.664062 -5.332031 1.59375 -4.890625 1.59375 -4.421875 C 1.59375 -3.910156 1.671875 -3.429688 1.828125 -2.984375 C 1.992188 -2.546875 2.203125 -2.1875 2.453125 -1.90625 C 2.710938 -1.632812 3.023438 -1.40625 3.390625 -1.21875 C 3.765625 -1.039062 4.175781 -0.953125 4.625 -0.953125 C 5.375 -0.953125 5.984375 -1.132812 6.453125 -1.5 C 6.929688 -1.863281 7.269531 -2.429688 7.46875 -3.203125 L 5 -3.203125 L 5 -4.203125 L 8.71875 -4.203125 L 8.71875 0.03125 Z M 7.640625 0.03125 "/></g></g></g><g fill="#627e8b" fill-opacity="1"><g transform="translate(292.631029, 205.887159)"><g><path d="M 0.828125 -8.828125 L 3.65625 -8.828125 L 3.65625 -7.8125 L 2.8125 -7.8125 L 2.8125 -1 L 3.65625 -1 L 3.65625 0 L 0.828125 0 L 0.828125 -1 L 1.671875 -1 L 1.671875 -7.8125 L 0.828125 -7.8125 Z M 0.828125 -8.828125 "/></g></g></g><g fill="#627e8b" fill-opacity="1"><g transform="translate(297.946683, 205.887159)"><g><path d="M 6.296875 -8.828125 L 9.15625 -8.828125 L 9.15625 -7.8125 L 8.40625 -7.8125 L 8.40625 0 L 6.921875 0 L 2.8125 -7.3125 L 2.8125 -1 L 3.71875 -1 L 3.71875 0 L 0.859375 0 L 0.859375 -1 L 1.671875 -1 L 1.671875 -7.8125 L 0.828125 -7.8125 L 0.828125 -8.84375 L 3.203125 -8.84375 L 7.234375 -1.59375 L 7.28125 -1.875 L 7.28125 -7.8125 L 6.296875 -7.8125 Z M 6.296875 -8.828125 "/></g></g></g><g fill="#627e8b" fill-opacity="1"><g transform="translate(308.232037, 205.887159)"><g><path d="M 0.828125 -8.828125 L 7.15625 -8.828125 L 7.15625 -6.328125 L 5.96875 -6.328125 L 5.96875 -7.8125 L 2.8125 -7.8125 L 2.8125 -5 L 5.453125 -5 L 5.453125 -4 L 2.8125 -4 L 2.8125 -1 L 5.96875 -1 L 5.96875 -2.484375 L 7.15625 -2.484375 L 7.15625 0 L 0.828125 0 L 0.828125 -1 L 1.671875 -1 L 1.671875 -7.8125 L 0.828125 -7.8125 Z M 0.828125 -8.828125 "/></g></g></g><g mask="url(#id2)"><g transform="matrix(1, 0, 0, 1, 55, 147)"><g clip-path="url(#id4)"><g clip-path="url(#id3)"><path fill="#627e8b" d="M 40.574219 0.425781 C 39.261719 0.425781 37.953125 0.488281 36.644531 0.617188 C 35.339844 0.746094 34.042969 0.941406 32.753906 1.195312 C 31.46875 1.453125 30.195312 1.769531 28.941406 2.152344 C 27.683594 2.53125 26.449219 2.972656 25.238281 3.476562 C 24.023438 3.976562 22.839844 4.539062 21.683594 5.15625 C 20.523438 5.777344 19.402344 6.449219 18.308594 7.179688 C 17.21875 7.910156 16.164062 8.691406 15.152344 9.523438 C 14.136719 10.355469 13.164062 11.234375 12.238281 12.164062 C 11.308594 13.089844 10.429688 14.0625 9.59375 15.078125 C 8.761719 16.089844 7.980469 17.144531 7.253906 18.234375 C 6.523438 19.328125 5.851562 20.453125 5.230469 21.609375 C 4.613281 22.765625 4.050781 23.953125 3.550781 25.164062 C 3.046875 26.375 2.605469 27.609375 2.226562 28.867188 C 1.84375 30.121094 1.523438 31.394531 1.269531 32.683594 C 1.011719 33.96875 0.820312 35.265625 0.691406 36.570312 C 0.5625 37.878906 0.5 39.1875 0.5 40.5 C 0.5 41.8125 0.5625 43.121094 0.691406 44.429688 C 0.820312 45.734375 1.011719 47.03125 1.269531 48.316406 C 1.523438 49.605469 1.84375 50.875 2.226562 52.132812 C 2.605469 53.390625 3.046875 54.625 3.550781 55.835938 C 4.050781 57.046875 4.613281 58.234375 5.230469 59.390625 C 5.851562 60.546875 6.523438 61.671875 7.253906 62.765625 C 7.980469 63.855469 8.761719 64.910156 9.59375 65.921875 C 10.429688 66.9375 11.308594 67.910156 12.238281 68.835938 C 13.164062 69.765625 14.136719 70.644531 15.152344 71.476562 C 16.164062 72.308594 17.21875 73.089844 18.308594 73.820312 C 19.402344 74.550781 20.523438 75.222656 21.683594 75.84375 C 22.839844 76.460938 24.023438 77.019531 25.238281 77.523438 C 26.449219 78.027344 27.683594 78.46875 28.941406 78.847656 C 30.195312 79.230469 31.46875 79.546875 32.753906 79.804688 C 34.042969 80.058594 35.339844 80.253906 36.644531 80.382812 C 37.953125 80.511719 39.261719 80.574219 40.574219 80.574219 C 41.886719 80.574219 43.195312 80.511719 44.5 80.382812 C 45.808594 80.253906 47.105469 80.058594 48.390625 79.804688 C 49.679688 79.546875 50.949219 79.230469 52.207031 78.847656 C 53.460938 78.46875 54.695312 78.027344 55.910156 77.523438 C 57.121094 77.019531 58.308594 76.460938 59.464844 75.84375 C 60.621094 75.222656 61.746094 74.550781 62.835938 73.820312 C 63.929688 73.089844 64.980469 72.308594 65.996094 71.476562 C 67.011719 70.644531 67.980469 69.765625 68.910156 68.835938 C 69.839844 67.910156 70.71875 66.9375 71.550781 65.921875 C 72.382812 64.910156 73.164062 63.855469 73.894531 62.765625 C 74.621094 61.671875 75.296875 60.546875 75.914062 59.390625 C 76.535156 58.234375 77.09375 57.046875 77.597656 55.835938 C 78.097656 54.625 78.539062 53.390625 78.921875 52.132812 C 79.304688 50.875 79.621094 49.605469 79.878906 48.316406 C 80.132812 47.03125 80.324219 45.734375 80.453125 44.429688 C 80.582031 43.121094 80.648438 41.8125 80.648438 40.5 C 80.648438 39.1875 80.582031 37.878906 80.453125 36.570312 C 80.324219 35.265625 80.132812 33.96875 79.878906 32.683594 C 79.621094 31.394531 79.304688 30.121094 78.921875 28.867188 C 78.539062 27.609375 78.097656 26.375 77.597656 25.164062 C 77.09375 23.953125 76.535156 22.765625 75.914062 21.609375 C 75.296875 20.453125 74.621094 19.328125 73.894531 18.234375 C 73.164062 17.144531 72.382812 16.089844 71.550781 15.078125 C 70.71875 14.0625 69.839844 13.089844 68.910156 12.164062 C 67.980469 11.234375 67.011719 10.355469 65.996094 9.523438 C 64.980469 8.691406 63.929688 7.910156 62.835938 7.179688 C 61.746094 6.449219 60.621094 5.777344 59.464844 5.15625 C 58.308594 4.539062 57.121094 3.976562 55.910156 3.476562 C 54.695312 2.972656 53.460938 2.53125 52.207031 2.152344 C 50.949219 1.769531 49.679688 1.453125 48.390625 1.195312 C 47.105469 0.941406 45.808594 0.746094 44.5 0.617188 C 43.195312 0.488281 41.886719 0.425781 40.574219 0.425781 Z M 40.574219 0.425781 " fill-opacity="1" fill-rule="nonzero"/></g></g></g></g><g clip-path="url(#id5)"><g clip-path="url(#id6)"><g clip-path="url(#id7)"><path fill="#d9d9d9" d="M 119.511719 173.503906 C 119.902344 173.863281 120.175781 174.371094 120.269531 174.890625 C 121.914062 184.867188 115.488281 196.347656 103.859375 202.691406 C 92.226562 209.035156 79.097656 208.21875 71.601562 201.4375 C 71.210938 201.078125 70.9375 200.570312 70.84375 200.050781 C 69.203125 190.074219 75.625 178.59375 87.253906 172.25 C 98.886719 165.90625 112.015625 166.722656 119.511719 173.503906 Z M 119.511719 173.503906 " fill-opacity="1" fill-rule="nonzero"/></g></g></g><g clip-path="url(#id8)"><g clip-path="url(#id9)"><g clip-path="url(#id10)"><g mask="url(#id11)"><g transform="matrix(1, 0, 0, 1, 70, 173)"><g clip-path="url(#id15)"><g clip-path="url(#id12)"><g clip-path="url(#id13)"><g clip-path="url(#id14)"><path fill="#184b29" d="M 50.019531 1.128906 C 50.144531 1.359375 50.230469 1.613281 50.269531 1.890625 C 51.914062 11.867188 45.488281 23.347656 33.859375 29.691406 C 22.226562 36.035156 9.097656 35.21875 1.601562 28.4375 C 1.390625 28.253906 1.222656 28.042969 1.09375 27.8125 " fill-opacity="1" fill-rule="nonzero"/></g></g></g></g></g></g></g></g></g><g clip-path="url(#id16)"><g clip-path="url(#id17)"><g clip-path="url(#id18)"><path fill="#184b29" d="M 120.949219 171.925781 C 112.632812 164.390625 98.371094 163.757812 86.234375 170.378906 C 74.097656 176.996094 66.910156 189.328125 68.738281 200.402344 C 68.902344 201.40625 69.421875 202.355469 70.175781 203.035156 C 78.484375 210.550781 92.777344 211.191406 104.914062 204.574219 C 117.046875 197.953125 124.238281 185.621094 122.40625 174.546875 C 122.230469 173.523438 121.726562 172.597656 120.949219 171.925781 Z M 73.058594 199.851562 C 73.015625 199.820312 72.980469 199.757812 72.976562 199.703125 C 72.300781 195.703125 73.105469 191.46875 75.070312 187.5 L 84.449219 204.699219 C 80.039062 204.183594 76.054688 202.585938 73.058594 199.851562 Z M 88.546875 204.839844 L 77.15625 183.960938 C 79.84375 180.117188 83.652344 176.675781 88.289062 174.144531 C 92.925781 171.617188 97.882812 170.28125 102.566406 170.101562 L 113.957031 190.984375 C 111.269531 194.824219 107.460938 198.269531 102.824219 200.796875 C 98.199219 203.34375 93.246094 204.683594 88.546875 204.839844 Z M 118.148438 175.257812 C 118.804688 179.269531 118.019531 183.496094 116.035156 187.472656 L 106.652344 170.273438 C 111.074219 170.757812 115.070312 172.375 118.066406 175.113281 C 118.109375 175.140625 118.144531 175.207031 118.148438 175.257812 Z M 118.148438 175.257812 " fill-opacity="1" fill-rule="nonzero"/></g></g></g><g clip-path="url(#id19)"><g clip-path="url(#id20)"><g clip-path="url(#id21)"><path fill="#184b29" d="M 103.933594 181.125 L 102.164062 182.09375 L 101.53125 180.933594 C 101.074219 180.09375 100 179.777344 99.15625 180.234375 C 98.3125 180.695312 97.996094 181.769531 98.457031 182.613281 L 99.085938 183.769531 L 96.371094 185.253906 L 95.738281 184.09375 C 95.277344 183.253906 94.203125 182.9375 93.363281 183.398438 C 92.519531 183.855469 92.203125 184.929688 92.660156 185.773438 L 93.292969 186.929688 L 90.535156 188.433594 L 89.902344 187.277344 C 89.441406 186.4375 88.367188 186.121094 87.527344 186.578125 C 86.683594 187.039062 86.332031 188.105469 86.792969 188.945312 L 87.425781 190.105469 L 85.695312 191.046875 C 84.855469 191.503906 84.539062 192.578125 84.996094 193.421875 C 85.457031 194.261719 86.53125 194.578125 87.375 194.121094 L 89.101562 193.175781 L 89.558594 194.019531 C 90.019531 194.859375 91.09375 195.175781 91.9375 194.71875 C 92.777344 194.257812 93.09375 193.183594 92.636719 192.339844 L 92.175781 191.5 L 94.9375 189.992188 L 95.398438 190.835938 C 95.855469 191.679688 96.929688 191.992188 97.773438 191.535156 C 98.617188 191.074219 98.933594 190 98.472656 189.15625 L 98.011719 188.316406 L 100.730469 186.832031 L 101.191406 187.675781 C 101.648438 188.519531 102.722656 188.832031 103.566406 188.375 C 104.410156 187.914062 104.726562 186.839844 104.265625 185.996094 L 103.808594 185.15625 L 105.578125 184.191406 C 106.421875 183.730469 106.738281 182.65625 106.277344 181.816406 C 105.816406 180.972656 104.777344 180.667969 103.933594 181.125 Z M 103.933594 181.125 " fill-opacity="1" fill-rule="nonzero"/></g></g></g></svg>