<svg xmlns="http://www.w3.org/2000/svg" xmlns:xlink="http://www.w3.org/1999/xlink" width="500" zoomAndPan="magnify" viewBox="0 0 375 374.999991" height="500" preserveAspectRatio="xMidYMid meet" version="1.0"><defs><filter x="0%" y="0%" width="100%" height="100%" id="id1"><feColorMatrix values="0 0 0 0 1 0 0 0 0 1 0 0 0 0 1 0 0 0 1 0" color-interpolation-filters="sRGB"/></filter><mask id="id2"><g filter="url(#id1)"><rect x="-37.5" width="450" fill="#000000" y="-37.499999" height="449.999989" fill-opacity="0.7294"/></g></mask><clipPath id="id3"><path d="M 0.425781 0.425781 L 80.574219 0.425781 L 80.574219 80.574219 L 0.425781 80.574219 Z M 0.425781 0.425781 " clip-rule="nonzero"/></clipPath><clipPath id="id4"><rect x="0" width="81" y="0" height="81"/></clipPath><clipPath id="id5"><path d="M 162 167 L 213 167 L 213 208 L 162 208 Z M 162 167 " clip-rule="nonzero"/></clipPath><clipPath id="id6"><path d="M 151.816406 184.726562 L 204.488281 155.996094 L 223.164062 190.234375 L 170.488281 218.964844 Z M 151.816406 184.726562 " clip-rule="nonzero"/></clipPath><clipPath id="id7"><path d="M 151.816406 184.726562 L 204.488281 155.996094 L 223.164062 190.234375 L 170.488281 218.964844 Z M 151.816406 184.726562 " clip-rule="nonzero"/></clipPath><clipPath id="id8"><path d="M 162 173 L 221 173 L 221 217 L 162 217 Z M 162 173 " clip-rule="nonzero"/></clipPath><clipPath id="id9"><path d="M 151.816406 184.726562 L 204.488281 155.996094 L 223.164062 190.234375 L 170.488281 218.964844 Z M 151.816406 184.726562 " clip-rule="nonzero"/></clipPath><clipPath id="id10"><path d="M 151.816406 184.726562 L 204.488281 155.996094 L 223.164062 190.234375 L 170.488281 218.964844 Z M 151.816406 184.726562 " clip-rule="nonzero"/></clipPath><mask id="id11"><g filter="url(#id1)"><rect x="-37.5" width="450" fill="#000000" y="-37.499999" height="449.999989" fill-opacity="0.149"/></g></mask><clipPath id="id12"><path d="M 1 1 L 51 1 L 51 35 L 1 35 Z M 1 1 " clip-rule="nonzero"/></clipPath><clipPath id="id13"><path d="M -10.183594 11.726562 L 42.488281 -17.003906 L 61.164062 17.234375 L 8.488281 45.964844 Z M -10.183594 11.726562 " clip-rule="nonzero"/></clipPath><clipPath id="id14"><path d="M -10.183594 11.726562 L 42.488281 -17.003906 L 61.164062 17.234375 L 8.488281 45.964844 Z M -10.183594 11.726562 " clip-rule="nonzero"/></clipPath><clipPath id="id15"><rect x="0" width="59" y="0" height="44"/></clipPath><clipPath id="id16"><path d="M 160 165 L 215 165 L 215 210 L 160 210 Z M 160 165 " clip-rule="nonzero"/></clipPath><clipPath id="id17"><path d="M 151.816406 184.726562 L 204.488281 155.996094 L 223.164062 190.234375 L 170.488281 218.964844 Z M 151.816406 184.726562 " clip-rule="nonzero"/></clipPath><clipPath id="id18"><path d="M 151.816406 184.726562 L 204.488281 155.996094 L 223.164062 190.234375 L 170.488281 218.964844 Z M 151.816406 184.726562 " clip-rule="nonzero"/></clipPath><clipPath id="id19"><path d="M 176 180 L 199 180 L 199 195 L 176 195 Z M 176 180 " clip-rule="nonzero"/></clipPath><clipPath id="id20"><path d="M 151.816406 184.726562 L 204.488281 155.996094 L 223.164062 190.234375 L 170.488281 218.964844 Z M 151.816406 184.726562 " clip-rule="nonzero"/></clipPath><clipPath id="id21"><path d="M 151.816406 184.726562 L 204.488281 155.996094 L 223.164062 190.234375 L 170.488281 218.964844 Z M 151.816406 184.726562 " clip-rule="nonzero"/></clipPath></defs><g mask="url(#id2)"><g transform="matrix(1, 0, 0, 1, 147, 147)"><g clip-path="url(#id4)"><g clip-path="url(#id3)"><path fill="#627e8b" d="M 40.5 0.425781 C 39.1875 0.425781 37.878906 0.488281 36.570312 0.617188 C 35.265625 0.746094 33.96875 0.941406 32.683594 1.195312 C 31.394531 1.453125 30.121094 1.769531 28.867188 2.152344 C 27.609375 2.53125 26.375 2.972656 25.164062 3.476562 C 23.953125 3.980469 22.765625 4.539062 21.609375 5.15625 C 20.453125 5.777344 19.328125 6.449219 18.234375 7.179688 C 17.144531 7.910156 16.089844 8.691406 15.078125 9.523438 C 14.0625 10.355469 13.089844 11.234375 12.164062 12.164062 C 11.234375 13.089844 10.355469 14.0625 9.523438 15.078125 C 8.691406 16.089844 7.910156 17.144531 7.179688 18.234375 C 6.449219 19.328125 5.777344 20.453125 5.15625 21.609375 C 4.539062 22.765625 3.976562 23.953125 3.476562 25.164062 C 2.972656 26.375 2.53125 27.609375 2.152344 28.867188 C 1.769531 30.121094 1.453125 31.394531 1.195312 32.683594 C 0.941406 33.96875 0.746094 35.265625 0.617188 36.570312 C 0.488281 37.878906 0.425781 39.1875 0.425781 40.5 C 0.425781 41.8125 0.488281 43.121094 0.617188 44.429688 C 0.746094 45.734375 0.941406 47.03125 1.195312 48.316406 C 1.453125 49.605469 1.769531 50.878906 2.152344 52.132812 C 2.53125 53.390625 2.972656 54.625 3.476562 55.835938 C 3.976562 57.046875 4.539062 58.234375 5.15625 59.390625 C 5.777344 60.546875 6.449219 61.671875 7.179688 62.765625 C 7.910156 63.855469 8.691406 64.910156 9.523438 65.921875 C 10.355469 66.9375 11.234375 67.910156 12.164062 68.835938 C 13.089844 69.765625 14.0625 70.644531 15.078125 71.476562 C 16.089844 72.308594 17.144531 73.089844 18.234375 73.820312 C 19.328125 74.550781 20.453125 75.222656 21.609375 75.84375 C 22.765625 76.460938 23.953125 77.019531 25.164062 77.523438 C 26.375 78.027344 27.609375 78.46875 28.867188 78.847656 C 30.121094 79.230469 31.394531 79.546875 32.683594 79.804688 C 33.96875 80.058594 35.265625 80.253906 36.570312 80.382812 C 37.878906 80.511719 39.1875 80.574219 40.5 80.574219 C 41.8125 80.574219 43.121094 80.511719 44.429688 80.382812 C 45.734375 80.253906 47.03125 80.058594 48.316406 79.804688 C 49.605469 79.546875 50.875 79.230469 52.132812 78.847656 C 53.390625 78.46875 54.625 78.027344 55.835938 77.523438 C 57.046875 77.019531 58.234375 76.460938 59.390625 75.84375 C 60.546875 75.222656 61.671875 74.550781 62.765625 73.820312 C 63.855469 73.089844 64.910156 72.308594 65.921875 71.476562 C 66.9375 70.644531 67.910156 69.765625 68.835938 68.835938 C 69.765625 67.910156 70.644531 66.9375 71.476562 65.921875 C 72.308594 64.910156 73.089844 63.855469 73.820312 62.765625 C 74.550781 61.671875 75.222656 60.546875 75.84375 59.390625 C 76.460938 58.234375 77.019531 57.046875 77.523438 55.835938 C 78.027344 54.625 78.46875 53.390625 78.847656 52.132812 C 79.230469 50.878906 79.546875 49.605469 79.804688 48.316406 C 80.058594 47.03125 80.253906 45.734375 80.382812 44.429688 C 80.511719 43.121094 80.574219 41.8125 80.574219 40.5 C 80.574219 39.1875 80.511719 37.878906 80.382812 36.570312 C 80.253906 35.265625 80.058594 33.96875 79.804688 32.683594 C 79.546875 31.394531 79.230469 30.121094 78.847656 28.867188 C 78.46875 27.609375 78.027344 26.375 77.523438 25.164062 C 77.019531 23.953125 76.460938 22.765625 75.84375 21.609375 C 75.222656 20.453125 74.550781 19.328125 73.820312 18.234375 C 73.089844 17.144531 72.308594 16.089844 71.476562 15.078125 C 70.644531 14.0625 69.765625 13.089844 68.835938 12.164062 C 67.910156 11.234375 66.9375 10.355469 65.921875 9.523438 C 64.910156 8.691406 63.855469 7.910156 62.765625 7.179688 C 61.671875 6.449219 60.546875 5.777344 59.390625 5.15625 C 58.234375 4.539062 57.046875 3.980469 55.835938 3.476562 C 54.625 2.972656 53.390625 2.53125 52.132812 2.152344 C 50.875 1.769531 49.605469 1.453125 48.316406 1.195312 C 47.03125 0.941406 45.734375 0.746094 44.429688 0.617188 C 43.121094 0.488281 41.8125 0.425781 40.5 0.425781 Z M 40.5 0.425781 " fill-opacity="1" fill-rule="nonzero"/></g></g></g></g><g clip-path="url(#id5)"><g clip-path="url(#id6)"><g clip-path="url(#id7)"><path fill="#d9d9d9" d="M 211.441406 173.503906 C 211.828125 173.863281 212.105469 174.371094 212.199219 174.890625 C 213.839844 184.867188 207.414062 196.347656 195.785156 202.691406 C 184.152344 209.035156 171.023438 208.21875 163.527344 201.4375 C 163.136719 201.078125 162.863281 200.570312 162.769531 200.050781 C 161.128906 190.074219 167.550781 178.59375 179.183594 172.25 C 190.8125 165.90625 203.941406 166.722656 211.441406 173.503906 Z M 211.441406 173.503906 " fill-opacity="1" fill-rule="nonzero"/></g></g></g><g clip-path="url(#id8)"><g clip-path="url(#id9)"><g clip-path="url(#id10)"><g mask="url(#id11)"><g transform="matrix(1, 0, 0, 1, 162, 173)"><g clip-path="url(#id15)"><g clip-path="url(#id12)"><g clip-path="url(#id13)"><g clip-path="url(#id14)"><path fill="#184b29" d="M 49.945312 1.128906 C 50.070312 1.359375 50.15625 1.613281 50.199219 1.890625 C 51.839844 11.867188 45.414062 23.347656 33.785156 29.691406 C 22.152344 36.035156 9.023438 35.21875 1.527344 28.4375 C 1.316406 28.253906 1.148438 28.042969 1.019531 27.8125 " fill-opacity="1" fill-rule="nonzero"/></g></g></g></g></g></g></g></g></g><g clip-path="url(#id16)"><g clip-path="url(#id17)"><g clip-path="url(#id18)"><path fill="#184b29" d="M 212.878906 171.925781 C 204.558594 164.390625 190.296875 163.757812 178.160156 170.378906 C 166.023438 176.996094 158.835938 189.328125 160.667969 200.402344 C 160.832031 201.40625 161.347656 202.355469 162.101562 203.035156 C 170.410156 210.550781 184.703125 211.191406 196.839844 204.574219 C 208.976562 197.953125 216.164062 185.621094 214.332031 174.546875 C 214.15625 173.523438 213.652344 172.597656 212.878906 171.925781 Z M 164.984375 199.851562 C 164.941406 199.820312 164.90625 199.757812 164.90625 199.703125 C 164.226562 195.703125 165.03125 191.46875 166.996094 187.5 L 176.378906 204.699219 C 171.96875 204.183594 167.980469 202.585938 164.984375 199.851562 Z M 180.472656 204.839844 L 169.082031 183.960938 C 171.773438 180.117188 175.582031 176.675781 180.214844 174.144531 C 184.851562 171.617188 189.808594 170.28125 194.492188 170.101562 L 205.882812 190.984375 C 203.195312 194.824219 199.386719 198.269531 194.75 200.796875 C 190.128906 203.34375 185.171875 204.683594 180.472656 204.839844 Z M 210.074219 175.257812 C 210.730469 179.269531 209.945312 183.496094 207.960938 187.472656 L 198.582031 170.273438 C 203 170.757812 206.996094 172.375 209.992188 175.113281 C 210.039062 175.140625 210.070312 175.207031 210.074219 175.257812 Z M 210.074219 175.257812 " fill-opacity="1" fill-rule="nonzero"/></g></g></g><g clip-path="url(#id19)"><g clip-path="url(#id20)"><g clip-path="url(#id21)"><path fill="#184b29" d="M 195.859375 181.125 L 194.089844 182.09375 L 193.460938 180.933594 C 193 180.09375 191.925781 179.777344 191.082031 180.234375 C 190.238281 180.695312 189.921875 181.769531 190.382812 182.613281 L 191.015625 183.769531 L 188.296875 185.253906 L 187.664062 184.09375 C 187.207031 183.253906 186.132812 182.9375 185.289062 183.398438 C 184.445312 183.855469 184.128906 184.929688 184.589844 185.773438 L 185.21875 186.929688 L 182.460938 188.433594 L 181.828125 187.277344 C 181.371094 186.4375 180.296875 186.121094 179.453125 186.578125 C 178.609375 187.039062 178.261719 188.105469 178.71875 188.945312 L 179.351562 190.105469 L 177.625 191.046875 C 176.78125 191.503906 176.464844 192.578125 176.921875 193.421875 C 177.382812 194.261719 178.457031 194.578125 179.300781 194.121094 L 181.027344 193.175781 L 181.488281 194.019531 C 181.945312 194.859375 183.019531 195.175781 183.863281 194.71875 C 184.707031 194.257812 185.023438 193.183594 184.5625 192.339844 L 184.105469 191.5 L 186.863281 189.992188 L 187.324219 190.835938 C 187.78125 191.679688 188.855469 191.992188 189.699219 191.535156 C 190.542969 191.074219 190.859375 190 190.398438 189.15625 L 189.941406 188.316406 L 192.65625 186.832031 L 193.117188 187.675781 C 193.578125 188.519531 194.652344 188.832031 195.492188 188.375 C 196.335938 187.914062 196.652344 186.839844 196.195312 185.996094 L 195.734375 185.15625 L 197.503906 184.191406 C 198.347656 183.730469 198.664062 182.65625 198.203125 181.816406 C 197.746094 180.972656 196.703125 180.667969 195.859375 181.125 Z M 195.859375 181.125 " fill-opacity="1" fill-rule="nonzero"/></g></g></g></svg>